<?xml version="1.0" standalone="no"?>
<!DOCTYPE svg PUBLIC "-//W3C//DTD SVG 20010904//EN"
 "http://www.w3.org/TR/2001/REC-SVG-20010904/DTD/svg10.dtd">
<svg version="1.0" xmlns="http://www.w3.org/2000/svg"
 width="1797.000000pt" height="1797.000000pt" viewBox="0 0 1797.000000 1797.000000"
 preserveAspectRatio="xMidYMid meet">
<metadata>
Created by potrace 1.14, written by Peter Selinger 2001-2017
</metadata>
<g transform="translate(0.000000,1797.000000) scale(0.100000,-0.100000)"
fill="#000000" stroke="none">
<path d="M8618 17386 c-1 -2 -57 -6 -123 -10 -198 -10 -281 -16 -475 -37 -184
-19 -180 -18 -290 -34 -14 -2 -45 -7 -70 -10 -25 -3 -70 -10 -100 -15 -30 -5
-71 -12 -90 -15 -255 -40 -842 -172 -951 -213 -13 -5 -26 -10 -29 -10 -23 0
-380 -114 -570 -182 -530 -189 -1081 -452 -1585 -755 -136 -81 -314 -198 -475
-309 -109 -76 -406 -297 -460 -343 -14 -11 -59 -49 -100 -83 -41 -34 -86 -71
-100 -83 -14 -12 -45 -39 -70 -61 -145 -125 -218 -193 -426 -401 -126 -126
-266 -270 -310 -319 -43 -49 -86 -97 -94 -106 -8 -8 -49 -56 -90 -105 -41 -50
-77 -92 -80 -95 -14 -13 -195 -247 -275 -355 -203 -275 -446 -657 -617 -970
-44 -81 -202 -399 -246 -495 -42 -92 -109 -247 -117 -270 -2 -7 -14 -37 -43
-105 -129 -311 -288 -824 -372 -1200 -41 -183 -39 -175 -46 -214 -3 -18 -8
-43 -10 -55 -2 -11 -6 -34 -9 -51 -3 -16 -8 -41 -10 -55 -3 -14 -7 -36 -10
-50 -7 -37 -43 -277 -49 -332 -3 -27 -8 -67 -11 -90 -8 -61 -13 -113 -20 -198
-4 -41 -8 -91 -10 -110 -26 -236 -26 -1028 0 -1270 2 -19 6 -71 9 -115 4 -44
8 -91 11 -105 2 -14 7 -52 10 -85 3 -33 8 -67 10 -75 2 -8 7 -46 10 -85 4 -38
8 -72 10 -75 1 -3 6 -27 9 -55 4 -27 9 -63 12 -80 3 -16 7 -41 9 -55 2 -14 9
-52 15 -85 7 -33 13 -67 14 -75 2 -8 6 -28 9 -45 4 -16 9 -45 12 -64 3 -19 7
-37 9 -40 2 -3 7 -22 10 -41 8 -47 10 -56 46 -200 17 -69 33 -132 35 -140 64
-266 251 -818 360 -1065 7 -16 27 -64 45 -105 91 -214 278 -588 384 -770 18
-30 35 -62 39 -70 4 -8 16 -28 27 -45 11 -16 23 -37 27 -45 22 -48 289 -457
368 -565 66 -89 170 -231 177 -240 291 -371 433 -532 742 -840 122 -121 246
-243 276 -270 133 -122 358 -312 485 -410 21 -16 61 -48 89 -70 232 -185 708
-499 1019 -674 353 -198 830 -425 1127 -536 335 -125 510 -184 740 -250 85
-25 169 -49 185 -55 49 -15 220 -57 367 -89 283 -63 523 -106 788 -141 47 -6
96 -13 110 -15 23 -3 125 -14 195 -20 17 -2 62 -6 100 -9 281 -26 422 -31 810
-31 367 0 537 7 795 31 36 3 85 7 110 10 25 2 65 7 90 10 25 3 63 7 86 9 22 2
54 6 70 9 16 3 54 8 84 11 30 3 62 8 70 10 8 2 35 7 60 10 25 3 70 10 100 15
30 5 71 12 90 15 19 3 58 10 85 15 28 5 62 12 78 15 15 3 38 7 52 10 14 3 37
7 53 10 277 56 736 178 1012 271 104 35 241 84 265 94 11 5 54 21 95 36 77 28
330 130 410 166 165 74 251 115 455 218 127 65 286 149 354 189 69 39 126 71
128 71 3 0 24 13 48 30 24 16 48 30 54 30 6 0 11 5 11 10 0 6 4 10 10 10 19 0
343 213 545 358 93 68 336 251 345 261 3 3 28 24 55 46 91 73 219 180 284 240
25 22 74 67 110 100 146 131 528 521 651 665 36 41 73 83 84 95 77 85 417 524
472 610 10 17 24 35 30 42 6 6 26 35 45 65 18 29 37 58 42 63 34 41 247 389
336 547 116 209 281 539 355 711 9 20 22 52 30 70 8 17 35 84 61 147 25 63 50
124 55 135 33 75 131 363 195 573 76 247 196 746 220 917 4 22 12 76 20 120 8
44 17 100 20 125 3 25 8 56 10 70 2 14 6 48 10 75 3 28 10 84 15 125 5 41 12
111 16 155 4 44 8 94 10 110 19 200 26 930 10 1130 -25 319 -28 351 -50 525
-23 181 -24 184 -45 310 -36 207 -51 287 -87 442 -19 84 -37 164 -40 178 -6
28 -14 57 -78 285 -169 601 -425 1209 -754 1790 -25 44 -60 104 -78 133 -19
29 -34 54 -34 56 0 8 -105 171 -217 338 -228 339 -455 630 -753 962 -78 88
-512 519 -600 598 -117 104 -278 240 -380 321 -47 38 -92 74 -102 82 -9 7 -61
46 -115 87 -54 40 -102 77 -108 81 -105 86 -596 404 -791 513 -27 15 -62 35
-79 45 -16 10 -57 32 -90 50 -33 17 -89 48 -125 67 -257 138 -630 306 -966
435 -319 122 -876 295 -1074 333 -14 3 -33 7 -42 10 -10 3 -30 7 -45 10 -16 3
-41 9 -58 14 -36 11 -311 66 -375 75 -24 4 -47 8 -50 10 -4 2 -29 7 -56 10
-27 4 -56 8 -64 10 -8 3 -35 7 -60 10 -25 3 -56 7 -70 10 -14 3 -45 7 -70 10
-25 3 -56 8 -70 10 -24 4 -110 13 -180 20 -19 2 -57 6 -85 9 -77 9 -142 14
-245 22 -52 3 -117 8 -145 11 -59 5 -872 13 -877 9z"/>
</g>
</svg>
